<svg width="178" height="19" viewBox="0 0 178 19" fill="none" xmlns="http://www.w3.org/2000/svg">
<path d="M176.035 12.0567H177.066L175.445 17.0997C175.151 18.1379 174.709 18.4346 173.972 18.4346C173.622 18.4695 173.268 18.4186 172.941 18.2862L173.236 17.3962C173.408 17.5141 173.617 17.5667 173.825 17.5447C174.12 17.5447 174.267 17.3962 174.414 17.0997L172.647 12.0568H173.825L175.004 15.6165L176.035 12.0567ZM170.879 14.2815C170.879 13.3916 170.437 12.7984 169.7 12.7984C169.111 12.7984 168.669 13.3916 168.669 14.2815C168.669 15.1715 169.111 15.7648 169.7 15.7648C170.437 15.7648 170.879 15.1716 170.879 14.2815ZM167.785 17.9895L168.08 17.0996C168.52 17.3812 169.03 17.5353 169.553 17.5446C169.734 17.5698 169.918 17.5526 170.091 17.4943C170.264 17.4359 170.421 17.3382 170.55 17.2086C170.678 17.0791 170.775 16.9214 170.832 16.748C170.889 16.5747 170.905 16.3904 170.879 16.2097V15.7648C170.732 16.0288 170.519 16.2499 170.261 16.406C170.003 16.5622 169.708 16.6479 169.406 16.6546C168.375 16.6546 167.491 15.9131 167.491 14.2815C167.438 13.7145 167.609 13.1495 167.967 12.7064C168.324 12.2633 168.841 11.977 169.406 11.9084C169.708 11.9152 170.003 12.0009 170.261 12.1571C170.519 12.3132 170.732 12.5343 170.879 12.7984V12.0567H172.057V16.2097C172.073 16.8083 171.863 17.3908 171.468 17.8412C171.23 18.056 170.95 18.2196 170.646 18.3217C170.342 18.4238 170.02 18.4622 169.7 18.4345C169.035 18.4455 168.378 18.2927 167.785 17.9895V17.9895ZM165.87 14.5782C165.87 13.5399 165.281 12.9467 164.545 12.9467C163.808 12.9467 163.366 13.5399 163.366 14.4298V14.5782C163.331 14.9693 163.45 15.3587 163.697 15.6634C163.945 15.9681 164.302 16.1642 164.692 16.2097C165.428 16.2098 165.87 15.4681 165.87 14.5782L165.87 14.5782ZM162.335 14.5782V14.4298C162.319 13.7846 162.558 13.159 162.998 12.6876C163.439 12.2161 164.047 11.9363 164.692 11.9084C165.008 11.9139 165.319 11.9854 165.605 12.1183C165.891 12.2512 166.147 12.4425 166.355 12.6799C166.563 12.9174 166.719 13.1957 166.813 13.4971C166.907 13.7984 166.937 14.1162 166.902 14.4298V14.5782C166.933 14.8972 166.898 15.2193 166.798 15.5238C166.698 15.8283 166.535 16.1084 166.319 16.3461C166.104 16.5837 165.842 16.7737 165.549 16.9037C165.256 17.0337 164.939 17.1009 164.618 17.1009C164.298 17.1009 163.981 17.0337 163.688 16.9037C163.395 16.7737 163.132 16.5837 162.917 16.3461C162.702 16.1084 162.539 15.8283 162.439 15.5238C162.338 15.2193 162.303 14.8972 162.335 14.5782ZM160.42 10.2769H161.451V17.0996H160.42V10.2769ZM158.358 14.5782C158.358 13.5399 157.916 12.9467 157.179 12.9467C156.443 12.9467 156.001 13.5399 156.001 14.4298V14.5782C156.001 15.4681 156.443 16.2097 157.179 16.2097C157.916 16.2097 158.358 15.4681 158.358 14.5782L158.358 14.5782ZM154.969 14.5782V14.4298C154.946 14.1185 154.984 13.8056 155.083 13.5094C155.182 13.2132 155.339 12.9397 155.545 12.7049C155.75 12.4701 156.001 12.2787 156.282 12.1419C156.562 12.0052 156.867 11.9258 157.179 11.9084C157.502 11.9101 157.822 11.9777 158.118 12.1071C158.414 12.2365 158.68 12.425 158.901 12.6611C159.122 12.8972 159.292 13.1758 159.401 13.4799C159.51 13.7841 159.556 14.1073 159.536 14.4298V14.5782C159.556 14.9007 159.51 15.224 159.401 15.5281C159.292 15.8322 159.122 16.1109 158.901 16.3469C158.68 16.583 158.414 16.7715 158.118 16.901C157.822 17.0304 157.502 17.098 157.179 17.0996C156.863 17.0941 156.552 17.0226 156.266 16.8897C155.98 16.7569 155.724 16.5656 155.516 16.3281C155.308 16.0907 155.152 15.8124 155.058 15.511C154.964 15.2096 154.934 14.8919 154.969 14.5782L154.969 14.5782ZM150.108 12.0567H151.287V12.7984C151.383 12.5271 151.563 12.294 151.802 12.1336C152.041 11.9732 152.325 11.8943 152.613 11.9084C153.496 11.9084 154.086 12.6501 154.086 13.6882V17.0997H153.055V13.985C153.055 13.2433 152.76 12.9468 152.171 12.9468C151.581 12.9468 151.287 13.2433 151.287 13.985V17.0997H150.108L150.108 12.0567ZM145.247 10.2769H146.278V12.7984C146.392 12.5397 146.577 12.3187 146.812 12.1612C147.047 12.0036 147.321 11.916 147.604 11.9084C148.635 11.9084 149.077 12.6501 149.077 13.6882V17.0997H148.046V13.985C148.046 13.2433 147.751 12.9468 147.162 12.9468C146.573 12.9468 146.278 13.2433 146.278 13.985V17.0997H145.247L145.247 10.2769ZM140.533 14.5782V14.4298C140.513 14.1073 140.559 13.7841 140.668 13.48C140.777 13.1758 140.947 12.8972 141.168 12.6611C141.389 12.4251 141.655 12.2365 141.951 12.1071C142.248 11.9777 142.567 11.9101 142.89 11.9084C143.198 11.906 143.503 11.9711 143.783 12.0993C144.063 12.2274 144.311 12.4154 144.51 12.6501L143.921 13.3916C143.792 13.2469 143.633 13.1321 143.455 13.0553C143.277 12.9784 143.084 12.9414 142.89 12.9467C142.154 12.9467 141.712 13.5399 141.712 14.5782C141.712 15.4681 142.154 16.2097 142.89 16.2097C143.094 16.187 143.29 16.1226 143.467 16.0206C143.645 15.9185 143.799 15.7809 143.921 15.6164L144.51 16.358C144.311 16.5926 144.063 16.7807 143.783 16.9088C143.503 17.037 143.198 17.1021 142.89 17.0996C142.567 17.098 142.248 17.0304 141.951 16.901C141.655 16.7715 141.389 16.583 141.168 16.3469C140.947 16.1109 140.777 15.8322 140.668 15.5281C140.559 15.224 140.513 14.9007 140.533 14.5782L140.533 14.5782ZM138.913 14.1332C138.913 13.3916 138.618 12.7984 137.882 12.7984C137.292 12.7984 136.998 13.3916 136.85 14.1332H138.913ZM135.819 14.5782C135.819 12.9467 136.703 11.9084 137.882 11.9084C139.355 11.9084 139.944 13.0949 139.944 14.5782V14.8748H136.85C136.998 15.7648 137.44 16.2098 138.176 16.2097C138.37 16.215 138.563 16.178 138.741 16.1011C138.919 16.0243 139.078 15.9095 139.207 15.7648L139.797 16.358C139.568 16.595 139.293 16.7829 138.989 16.9104C138.685 17.0379 138.358 17.1023 138.029 17.0996C137.713 17.094 137.402 17.0224 137.116 16.8895C136.83 16.7566 136.574 16.5653 136.366 16.3279C136.158 16.0905 136.002 15.8122 135.908 15.5109C135.814 15.2096 135.783 14.8919 135.819 14.5782L135.819 14.5782ZM133.315 11.4634H131.547V10.4252H136.114V11.4634H134.346V17.0997H133.315V11.4634ZM124.624 12.0568H125.655V12.7985C125.786 12.5525 125.975 12.3425 126.206 12.1873C126.438 12.032 126.704 11.9362 126.981 11.9085C127.209 11.9033 127.435 11.9471 127.645 12.0369C127.855 12.1268 128.043 12.2606 128.196 12.4292C128.35 12.5979 128.465 12.7976 128.535 13.0148C128.605 13.232 128.628 13.4616 128.601 13.6882V17.0997H127.423V13.985C127.423 13.2433 127.128 12.9468 126.539 12.9468C126.097 12.9468 125.655 13.2433 125.655 13.985V17.0997H124.624V12.0568ZM122.709 14.5782C122.709 13.54 122.119 12.9468 121.53 12.9468C121.344 12.9515 121.161 12.9943 120.992 13.0726C120.822 13.1508 120.671 13.2629 120.547 13.4018C120.423 13.5407 120.328 13.7036 120.269 13.8804C120.21 14.0572 120.188 14.2442 120.204 14.4299V14.5782C120.169 14.9693 120.288 15.3587 120.536 15.6634C120.783 15.9682 121.14 16.1642 121.53 16.2098C122.267 16.2098 122.709 15.4681 122.709 14.5782H122.709ZM119.173 14.5782V14.4299C119.158 13.7846 119.396 13.1591 119.837 12.6876C120.277 12.2161 120.885 11.9363 121.53 11.9084C121.846 11.914 122.157 11.9855 122.443 12.1183C122.73 12.2512 122.985 12.4425 123.193 12.6799C123.401 12.9174 123.557 13.1957 123.652 13.4971C123.746 13.7985 123.776 14.1162 123.74 14.4299V14.5782C123.776 14.8919 123.746 15.2096 123.652 15.511C123.557 15.8123 123.401 16.0907 123.193 16.3281C122.985 16.5656 122.73 16.7569 122.443 16.8898C122.157 17.0226 121.846 17.0941 121.53 17.0997C121.207 17.098 120.888 17.0304 120.592 16.901C120.296 16.7716 120.029 16.583 119.808 16.347C119.588 16.1109 119.417 15.8323 119.308 15.5281C119.199 15.224 119.153 14.9008 119.173 14.5782H119.173ZM117.258 12.0568H118.289V17.0997H117.258V12.0568ZM117.258 10.277H118.289V11.3152H117.258V10.277ZM114.165 15.7648V12.9468H113.575V12.0568H114.165V10.7219H115.196V12.0568H116.374V12.9468H115.196V15.6164C115.188 15.696 115.198 15.7763 115.224 15.8517C115.251 15.927 115.294 15.9955 115.35 16.0522C115.407 16.109 115.475 16.1525 115.55 16.1797C115.625 16.207 115.706 16.2172 115.785 16.2098C115.932 16.2098 116.227 16.0613 116.374 16.0613V16.9513C116.096 17.0722 115.793 17.1231 115.491 17.0996C115.31 17.1258 115.125 17.1092 114.952 17.0512C114.778 16.9932 114.621 16.8954 114.492 16.7657C114.363 16.6359 114.266 16.4779 114.21 16.3041C114.153 16.1303 114.137 15.9456 114.165 15.7648H114.165ZM111.955 15.3199V14.8749C111.808 14.7265 111.366 14.7265 111.071 14.7265C110.482 14.7265 110.04 15.0231 110.04 15.4681C110.035 15.5859 110.054 15.7035 110.096 15.8135C110.139 15.9235 110.204 16.0235 110.287 16.1071C110.37 16.1908 110.469 16.2562 110.579 16.2994C110.689 16.3426 110.806 16.3626 110.924 16.358C111.061 16.3609 111.197 16.3359 111.324 16.2847C111.45 16.2335 111.566 16.157 111.662 16.0599C111.758 15.9628 111.834 15.8472 111.884 15.72C111.935 15.5928 111.959 15.4566 111.955 15.3199H111.955ZM109.009 15.6164C109.009 14.4299 109.746 13.985 110.777 13.985C111.176 13.9397 111.58 13.9905 111.955 14.1332V13.985C111.972 13.8452 111.957 13.7035 111.911 13.5705C111.865 13.4374 111.79 13.3165 111.691 13.2166C111.591 13.1168 111.471 13.0406 111.338 12.9939C111.205 12.9472 111.064 12.9311 110.924 12.9468C110.514 12.9568 110.111 13.0581 109.746 13.2433L109.451 12.3534C109.956 12.0987 110.507 11.9474 111.071 11.9084C111.618 11.9199 112.142 12.1309 112.544 12.5018C112.714 12.7065 112.841 12.9435 112.916 13.1983C112.992 13.4532 113.016 13.7207 112.986 13.985V17.0997H111.955V16.358C111.817 16.5854 111.622 16.7732 111.39 16.9031C111.157 17.033 110.895 17.1007 110.629 17.0997C110.424 17.1135 110.219 17.0857 110.025 17.0178C109.831 16.9499 109.653 16.8434 109.502 16.7048C109.35 16.5661 109.229 16.3982 109.144 16.2111C109.059 16.024 109.013 15.8217 109.009 15.6164ZM101.643 12.0567H102.675V12.7984C102.805 12.5525 102.995 12.3425 103.226 12.1873C103.457 12.032 103.723 11.9362 104.001 11.9084C104.293 11.8649 104.591 11.932 104.836 12.0966C105.081 12.2612 105.256 12.5115 105.326 12.7984C105.473 12.5343 105.686 12.3132 105.944 12.1571C106.203 12.0009 106.497 11.9152 106.799 11.9084C107.683 11.9084 108.272 12.5018 108.272 13.6882V17.0997H107.241V13.985C107.241 13.2433 106.947 12.9468 106.357 12.9468C105.916 12.9468 105.474 13.2433 105.474 13.985V17.0997H104.442V13.985C104.442 13.2433 104.148 12.9468 103.559 12.9468C103.306 12.9734 103.074 13.0961 102.909 13.2893C102.745 13.4825 102.661 13.7316 102.675 13.985V17.0997H101.643V12.0567ZM98.4027 12.0567H99.4338V12.9467C99.5469 12.6459 99.7479 12.386 100.011 12.2009C100.273 12.0157 100.586 11.9138 100.907 11.9084V13.0949C100.023 13.0949 99.4338 13.6882 99.4338 14.8748V17.0996H98.4027V12.0567ZM96.4877 14.5782C96.4877 13.54 96.0457 12.9468 95.3091 12.9468C94.5725 12.9468 94.1307 13.54 94.1307 14.4298V14.5782C94.1307 15.4681 94.5726 16.2098 95.3091 16.2098C96.0456 16.2098 96.4877 15.4681 96.4877 14.5782V14.5782ZM92.9523 14.5782V14.4298C92.9367 13.7847 93.1749 13.1591 93.6155 12.6876C94.0562 12.2161 94.6643 11.9364 95.3091 11.9084C95.6248 11.914 95.9358 11.9854 96.2222 12.1183C96.5086 12.2512 96.7641 12.4425 96.9722 12.6799C97.1803 12.9174 97.3364 13.1957 97.4306 13.4971C97.5247 13.7984 97.5547 14.1162 97.5188 14.4299V14.5782C97.5547 14.8919 97.5247 15.2096 97.4306 15.511C97.3364 15.8124 97.1803 16.0907 96.9722 16.3282C96.7641 16.5656 96.5086 16.7569 96.2222 16.8898C95.9358 17.0226 95.6248 17.0941 95.3091 17.0997C94.986 17.098 94.6666 17.0304 94.3705 16.9009C94.0744 16.7715 93.8079 16.583 93.5872 16.3469C93.3666 16.1109 93.1965 15.8322 93.0873 15.5281C92.9781 15.224 92.9322 14.9007 92.9523 14.5782V14.5782ZM90.5953 12.9468H90.006V12.0568H90.5953V11.6119C90.5743 11.4155 90.6039 11.217 90.6812 11.0352C90.7586 10.8535 90.8811 10.6946 91.0372 10.5735C91.1563 10.417 91.3138 10.2938 91.4944 10.2158C91.6751 10.1379 91.8728 10.1079 92.0684 10.1286C92.363 10.1286 92.5103 10.277 92.8049 10.277V11.1669C92.6576 11.1669 92.363 11.0185 92.2157 11.0185C92.04 11.0406 91.88 11.1305 91.7699 11.2692C91.6597 11.4078 91.6083 11.584 91.6265 11.7601V12.0567H92.8049V12.9467H91.6265V17.0996H90.5953V12.9468ZM85.4395 12.0568H86.4706V12.7985C86.6013 12.5525 86.7907 12.3426 87.022 12.1873C87.2533 12.0321 87.5193 11.9363 87.7964 11.9085C88.0245 11.9033 88.251 11.9471 88.4607 12.0369C88.6704 12.1268 88.8584 12.2606 89.012 12.4293C89.1656 12.598 89.2812 12.7976 89.351 13.0148C89.4209 13.232 89.4433 13.4616 89.4168 13.6882V17.0997H88.3856V13.985C88.4023 13.8452 88.3871 13.7035 88.3413 13.5705C88.2955 13.4374 88.2202 13.3165 88.121 13.2166C88.0219 13.1168 87.9014 13.0406 87.7687 12.9939C87.6359 12.9472 87.4943 12.9311 87.3545 12.9468C86.9125 12.9468 86.4706 13.2433 86.4706 13.985V17.0997H85.4395L85.4395 12.0568ZM83.0825 10.4252H84.261V17.0997H83.0825L83.0825 10.4252ZM75.7171 12.0567H76.7482V12.7984C76.8789 12.5525 77.0683 12.3425 77.2995 12.1873C77.5308 12.032 77.7968 11.9362 78.074 11.9084C78.3021 11.9033 78.5286 11.9471 78.7383 12.0369C78.948 12.1268 79.136 12.2605 79.2896 12.4292C79.4432 12.5979 79.5588 12.7976 79.6286 13.0148C79.6985 13.232 79.7209 13.4616 79.6944 13.6882V17.0997H78.5159V13.985C78.5159 13.2433 78.2213 12.9468 77.6321 12.9468C77.1901 12.9468 76.7482 13.2433 76.7482 13.985V17.0997H75.7171V12.0567ZM73.5074 12.0567H74.5386V17.0997H73.5074V12.0567ZM73.5074 10.277H74.5386V11.3152H73.5074V10.277ZM141.859 6.56895L142.448 5.82731C142.616 6.0132 142.82 6.16202 143.048 6.2642C143.277 6.36638 143.524 6.41966 143.774 6.42063C144.216 6.42063 144.51 6.27231 144.51 5.82731C144.51 5.53062 144.069 5.38236 143.479 5.08573C142.743 4.78904 142.154 4.49241 142.154 3.60251C142.158 3.3972 142.204 3.1949 142.288 3.00783C142.373 2.82076 142.495 2.65283 142.646 2.51418C142.798 2.37553 142.976 2.26905 143.17 2.20119C143.364 2.13333 143.569 2.10549 143.774 2.11936C144.36 2.15845 144.922 2.36431 145.394 2.71262L144.952 3.45426C144.62 3.17966 144.205 3.02316 143.774 3.00926C143.332 3.00926 143.185 3.30583 143.185 3.45426V3.60251C143.185 3.89914 143.479 4.04751 144.069 4.34403C144.952 4.64072 145.394 4.93735 145.394 5.82731C145.39 6.03262 145.344 6.23492 145.26 6.42199C145.175 6.60905 145.053 6.77699 144.902 6.91563C144.75 7.05428 144.572 7.16075 144.378 7.22861C144.184 7.29647 143.979 7.3243 143.774 7.31043C143.421 7.32158 143.07 7.26169 142.741 7.13431C142.412 7.00692 142.112 6.81466 141.859 6.56895ZM139.355 5.97563V3.15751H138.765V2.26762H139.355V0.932722H140.386V2.26762H141.564V3.15751H140.386V5.82731C140.378 5.90684 140.388 5.98716 140.414 6.06248C140.441 6.13781 140.484 6.20629 140.54 6.26301C140.597 6.31973 140.665 6.36327 140.74 6.39052C140.815 6.41778 140.896 6.42806 140.975 6.42063C141.122 6.42063 141.27 6.27231 141.564 6.27231V7.1622C141.27 7.1622 140.975 7.31045 140.68 7.31045C140.5 7.33658 140.315 7.31998 140.142 7.262C139.968 7.20401 139.811 7.10624 139.682 6.97651C139.553 6.84678 139.456 6.68869 139.4 6.51489C139.343 6.3411 139.327 6.15642 139.355 5.97563ZM135.819 2.26763H136.85V3.15752C136.964 2.85673 137.165 2.5969 137.427 2.41177C137.69 2.22665 138.002 2.12477 138.323 2.11937V3.30583C137.44 3.30583 136.85 3.89915 136.85 5.08574V7.16221H135.819V2.26763ZM133.904 4.34405C133.904 3.60253 133.462 3.00927 132.873 3.00927C132.284 3.00927 131.989 3.60253 131.842 4.34405H133.904ZM130.811 4.78905V4.64073C130.773 4.33841 130.796 4.03149 130.881 3.73864C130.965 3.44579 131.108 3.17314 131.301 2.93728C131.494 2.70142 131.732 2.50727 132.003 2.36666C132.273 2.22605 132.569 2.14192 132.873 2.11937C134.199 2.11937 134.935 3.30583 134.935 4.78905V5.08573H131.842C131.989 5.97563 132.431 6.42059 133.168 6.42063C133.378 6.42972 133.587 6.37876 133.769 6.27371C133.952 6.16865 134.101 6.01383 134.199 5.82731L134.788 6.56895C134.559 6.80592 134.284 6.99385 133.98 7.12132C133.676 7.24879 133.35 7.31315 133.02 7.31047C132.705 7.30483 132.394 7.23326 132.107 7.10036C131.821 6.96745 131.566 6.77615 131.358 6.53873C131.149 6.3013 130.993 6.023 130.899 5.72168C130.805 5.42037 130.775 5.10269 130.811 4.78904V4.78905ZM129.19 4.78905V4.64073C129.19 3.75084 128.601 3.00926 128.012 3.00926C127.423 3.00926 126.833 3.75084 126.833 4.64073V4.78905C126.833 5.82732 127.423 6.42064 128.012 6.42064C128.748 6.42063 129.19 5.82731 129.19 4.78904V4.78905ZM125.802 2.26763H126.833V3.00927C126.98 2.74519 127.193 2.52407 127.451 2.36794C127.71 2.21181 128.005 2.12611 128.306 2.11938C129.338 2.11938 130.221 3.00927 130.221 4.64074V4.78906C130.221 6.42065 129.338 7.31048 128.306 7.31048C128.005 7.30374 127.71 7.21804 127.451 7.06192C127.193 6.9058 126.98 6.68471 126.833 6.42065V8.64543H125.802V2.26763ZM123.003 3.89916L124.034 2.26763H125.066L123.593 4.64073L125.213 7.16221H124.035L123.003 5.38236L121.972 7.16221H120.941L122.414 4.64073L120.941 2.26762H122.12L123.003 3.89916ZM119.615 4.34405C119.615 3.60253 119.173 3.00927 118.584 3.00927C117.995 3.00927 117.553 3.60253 117.553 4.34405H119.615ZM116.522 4.78905V4.64073C116.484 4.33842 116.507 4.03151 116.592 3.73866C116.676 3.44582 116.819 3.17318 117.012 2.93732C117.205 2.70145 117.443 2.50731 117.714 2.36669C117.984 2.22608 118.28 2.14193 118.584 2.11937C119.91 2.11937 120.646 3.30583 120.646 4.78905V5.08573H117.553C117.7 5.97563 118.142 6.42059 118.879 6.42063C119.089 6.42972 119.298 6.37877 119.48 6.27371C119.663 6.16866 119.812 6.01383 119.91 5.82731L120.499 6.56895C120.27 6.80589 119.995 6.99381 119.691 7.12128C119.388 7.24875 119.061 7.31312 118.731 7.31047C118.416 7.30484 118.105 7.23327 117.818 7.10037C117.532 6.96747 117.277 6.77617 117.069 6.53874C116.861 6.30132 116.704 6.02301 116.61 5.72169C116.516 5.42037 116.486 5.10269 116.522 4.78904V4.78905ZM112.102 4.49242C112.144 4.31502 112.144 4.13062 112.104 3.95298C112.064 3.77533 111.984 3.60901 111.871 3.46643C111.758 3.32386 111.614 3.20869 111.45 3.12954C111.286 3.05038 111.106 3.00926 110.924 3.00926C110.742 3.00926 110.562 3.05038 110.398 3.12954C110.234 3.20869 110.09 3.32386 109.977 3.46643C109.864 3.60901 109.784 3.77533 109.744 3.95298C109.704 4.13062 109.704 4.31502 109.745 4.49242C109.704 4.66982 109.704 4.85423 109.744 5.03188C109.784 5.20954 109.863 5.37586 109.977 5.51844C110.09 5.66103 110.234 5.7762 110.398 5.85536C110.562 5.93452 110.742 5.97563 110.924 5.97563C111.106 5.97563 111.286 5.93452 111.45 5.85536C111.614 5.7762 111.758 5.66103 111.871 5.51844C111.984 5.37586 112.064 5.20954 112.104 5.03188C112.144 4.85423 112.144 4.66982 112.102 4.49242ZM109.009 8.20043L109.304 7.31043C109.735 7.61142 110.251 7.76727 110.777 7.75538C110.957 7.78058 111.142 7.76334 111.315 7.70503C111.488 7.64672 111.645 7.54894 111.773 7.41943C111.902 7.28992 111.999 7.13224 112.056 6.95887C112.113 6.78551 112.129 6.60122 112.103 6.4206V5.9756C111.956 6.23968 111.743 6.46079 111.485 6.61692C111.226 6.77305 110.931 6.85875 110.629 6.86549C109.598 6.86549 108.714 6.12391 108.714 4.49238C108.714 2.86091 109.598 2.11938 110.629 2.11938C110.931 2.12612 111.226 2.21183 111.485 2.36795C111.743 2.52408 111.956 2.74519 112.103 3.00927V2.26762H113.134V6.42062C113.176 6.72 113.144 7.02516 113.041 7.30952C112.939 7.59388 112.768 7.84882 112.544 8.05215C112.25 8.49704 111.661 8.64541 110.777 8.64541C110.158 8.65676 109.548 8.50316 109.009 8.20043ZM104.001 2.26763H105.179V3.00927C105.293 2.75058 105.478 2.52959 105.713 2.37204C105.947 2.21449 106.222 2.12687 106.505 2.11938C107.389 2.11938 107.978 2.86096 107.978 3.89917V7.16221H106.947V4.19584C106.947 3.45426 106.652 3.15751 106.063 3.15751C105.473 3.15751 105.179 3.45426 105.179 4.19584V7.16221H104.001L104.001 2.26763ZM101.938 2.26763H102.969V7.16221H101.938V2.26763ZM101.791 0.487832H102.969V1.52604H101.791V0.487832ZM98.8446 5.97563V3.15751H98.2554V2.26762H98.8446V0.932722H99.8758V2.26762H101.054V3.15751H99.8758V5.82731C99.8678 5.90684 99.8775 5.98715 99.9043 6.06247C99.931 6.1378 99.9741 6.20627 100.03 6.26299C100.087 6.3197 100.155 6.36325 100.23 6.3905C100.305 6.41776 100.385 6.42805 100.465 6.42063C100.612 6.42063 100.76 6.27231 101.054 6.27231V7.1622C100.76 7.1622 100.465 7.31045 100.17 7.31045C99.9894 7.33658 99.8048 7.31999 99.6314 7.262C99.458 7.20402 99.3006 7.10625 99.1717 6.97652C99.0429 6.84679 98.9462 6.6887 98.8894 6.5149C98.8326 6.3411 98.8172 6.15642 98.8446 5.97563ZM96.4877 2.26763H97.5188V7.16221H96.4877V2.26763ZM96.3403 0.487832H97.5188V1.52604H96.3403V0.487832ZM91.3318 5.53062V2.26762H92.5103V5.23405C92.5103 5.97563 92.8049 6.42063 93.3941 6.42063C93.8361 6.42063 94.278 5.97563 94.278 5.23405V2.26762H95.3091V7.16221H94.278V6.56895C94.1396 6.79629 93.9449 6.98402 93.7126 7.11393C93.4803 7.24384 93.2184 7.31153 92.9523 7.31043C91.921 7.31043 91.3318 6.71726 91.3318 5.53062ZM88.2383 2.26762H89.2695V3.15751C89.3826 2.8567 89.5836 2.59686 89.8463 2.41173C90.109 2.2266 90.4213 2.12473 90.7426 2.11936V3.30583C89.8588 3.30583 89.2695 3.89915 89.2695 5.08574V7.16221H88.2383V2.26762ZM83.5244 4.78904V4.64073C83.5043 4.31821 83.5502 3.99498 83.6594 3.69084C83.7686 3.3867 83.9387 3.10806 84.1594 2.872C84.3801 2.63593 84.6467 2.44742 84.9427 2.318C85.2388 2.18859 85.5583 2.12099 85.8814 2.11937C86.1893 2.11689 86.494 2.18202 86.7739 2.31016C87.0539 2.43829 87.3023 2.62632 87.5017 2.86095L86.9125 3.60253C86.7834 3.4578 86.6242 3.34299 86.4461 3.26613C86.268 3.18927 86.0753 3.15221 85.8814 3.15753C85.1449 3.15753 84.7029 3.75085 84.7029 4.64075V4.78907C84.7029 5.67907 85.1449 6.42066 85.8814 6.42066C86.0848 6.39796 86.2814 6.33355 86.4588 6.23146C86.6362 6.12938 86.7906 5.99181 86.9125 5.82734L87.5017 6.56898C87.3023 6.80361 87.0539 6.99162 86.7739 7.11974C86.494 7.24787 86.1893 7.31299 85.8814 7.3105C85.5583 7.30888 85.2388 7.24128 84.9427 7.11186C84.6466 6.98243 84.3801 6.79391 84.1594 6.55783C83.9387 6.32176 83.7686 6.04311 83.6594 5.73896C83.5502 5.43481 83.5043 5.11157 83.5244 4.78904ZM81.904 4.34403C81.904 3.60251 81.6094 3.00925 80.8728 3.00925C80.2836 3.00925 79.989 3.60251 79.8417 4.34403H81.904ZM78.8106 4.78903V4.64073C78.7724 4.33843 78.7962 4.03152 78.8804 3.73869C78.9646 3.44585 79.1075 3.17321 79.3004 2.93735C79.4933 2.70149 79.7322 2.50734 80.0025 2.36672C80.2728 2.2261 80.5689 2.14194 80.8728 2.11937C82.346 2.11937 82.9352 3.30583 82.9352 4.78905V5.08573H79.8417C79.989 5.97563 80.431 6.42059 81.1675 6.42063C81.378 6.42972 81.5866 6.37876 81.7692 6.27371C81.9518 6.16865 82.1007 6.01383 82.1986 5.82731L82.7879 6.56895C82.5589 6.8059 82.2841 6.99382 81.9802 7.12129C81.6763 7.24877 81.3497 7.31313 81.0202 7.31047C80.7045 7.30484 80.3936 7.23327 80.1072 7.10037C79.8209 6.96747 79.5655 6.77617 79.3574 6.53874C79.1493 6.30132 78.9932 6.02301 78.899 5.72169C78.8049 5.42037 78.7747 5.10269 78.8106 4.78904L78.8106 4.78903ZM75.7171 3.89915C76.6009 3.89915 77.0428 3.45426 77.0428 2.71263C77.0428 1.97093 76.6009 1.67436 75.8643 1.67436H74.5386V3.89915H75.7171ZM73.5074 0.636152H75.8643C76.1839 0.608498 76.5058 0.646898 76.8099 0.748963C77.114 0.851028 77.3939 1.01457 77.6321 1.22943C78.0012 1.63643 78.2105 2.1633 78.2213 2.71265C78.2364 3.13374 78.1156 3.54851 77.8769 3.8957C77.6381 4.24289 77.2941 4.5041 76.8955 4.64075L78.3686 7.16223H77.1901L75.7171 4.93738H74.5386V7.16221H73.5074V0.636152ZM60.6915 6.12394C58.7764 5.82731 57.0088 5.97562 56.8614 5.08573C56.7141 4.49241 57.7453 4.34403 58.4819 4.34403C60.1066 4.37267 61.7093 4.72569 63.1957 5.38236L65.7 1.67436C63.1476 0.396752 60.2972 -0.166982 57.4506 0.0428318C53.6206 0.339462 51.2637 2.71263 51.411 5.53062C51.411 9.23875 54.9464 10.277 56.7141 10.5735C59.2184 11.0185 61.1334 10.7219 61.1334 11.7601C61.1334 12.3534 59.8076 12.6501 58.6291 12.5018C56.7648 12.461 54.9409 11.9509 53.326 11.0185L50.8217 14.8749C53.4586 16.6677 56.6293 17.505 59.8076 17.248C63.4904 16.803 66.2892 15.1716 66.4365 12.2051C67.0258 8.20042 63.785 6.56895 60.6915 6.12394H60.6915ZM13.6998 0.191142C12.2267 0.191142 10.7536 0.191142 10.9009 0.339462V5.82731C10.9009 5.82731 9.57509 5.67906 8.2493 5.67906C7.41247 5.68208 6.57645 5.73158 5.7451 5.82731V0.339432C4.77373 0.161498 3.78322 0.111644 2.79889 0.191142C1.86348 0.116012 0.922233 0.165881 0 0.339432L0 16.9513C0 16.9513 1.4731 17.0997 2.79889 17.0997C4.27199 17.0997 5.7451 16.9513 5.7451 16.9513V11.3152H10.9009V16.9513C11.8303 17.0534 12.7648 17.1029 13.6998 17.0997C15.0256 17.0997 16.4987 16.9513 16.4987 16.9513V0.339432C15.5775 0.157052 14.6351 0.107118 13.6998 0.191142ZM25.6319 10.5735C25.6319 10.5735 27.2522 5.82731 27.2522 5.97563C27.2522 5.82731 28.7254 10.5735 28.7254 10.5735H25.6319ZM30.0511 0.339432C28.139 0.191062 26.2182 0.191062 24.3061 0.339432C24.3061 0.191112 17.5298 17.0996 17.6771 16.9513C19.5893 17.0998 21.51 17.0998 23.4222 16.9513C23.4222 16.9513 24.1588 14.7265 24.1588 14.5782C26.1201 14.7265 28.0898 14.7265 30.0511 14.5782C30.0511 14.7265 30.7877 16.9513 30.7877 16.9513C32.749 17.0997 34.7187 17.0997 36.68 16.9513C36.68 17.0997 30.1984 0.191142 30.0511 0.339432ZM52.1475 0.339432C52.2949 0.191112 45.5186 10.8701 45.5186 10.8701V16.9513C43.6557 17.0997 41.7838 17.0997 39.9209 16.9513V10.8702C39.7736 10.8702 33.1447 0.191162 33.1447 0.339462C35.1552 0.191146 37.1738 0.191146 39.1843 0.339462C39.1843 0.191142 42.7197 5.82731 42.7197 5.82731C42.7197 5.82731 46.1078 0.191142 46.1078 0.339432C48.1183 0.191067 50.137 0.191067 52.1475 0.339432Z" fill="#002776"/>
</svg>
